# xmcd CD database file
#
# Track frame offsets:
#	150
#	16659
#	27633
#	40450
#	59167
#	66665
#	78148
#	92755
#	110660
#	127520
#	139529
#
# Disc length: 2088 seconds
#
# Revision: 1
# Processed by: cddbd v1.5.1PL2 Copyright (c) Steve Scherf et al.
# Submitted via: CDex 1.51
#
DISCID=9308260b
DTITLE=Enya - A Day Without Rain
DYEAR=2000
DGENRE=New Age
TTITLE0=A Day Without Rain
TTITLE1=Wild Child
TTITLE2=Only Time
TTITLE3=Tempus Vernum
TTITLE4=Deora Ar Mo Chroi
TTITLE5=Flora's Secret 
TTITLE6=Fallen Embers
TTITLE7=Silver Inches
TTITLE8=Pilgrim
TTITLE9=One By One
TTITLE10=Lazy Days
EXTD=YEAR: 2000
EXTT0=
EXTT1=
EXTT2=
EXTT3=
EXTT4=
EXTT5=
EXTT6=
EXTT7=
EXTT8=
EXTT9=
EXTT10=
PLAYORDER=
